<?xml version="1.0" standalone="no"?>
<!DOCTYPE svg PUBLIC "-//W3C//DTD SVG 20010904//EN"
 "http://www.w3.org/TR/2001/REC-SVG-20010904/DTD/svg10.dtd">
<svg version="1.0" xmlns="http://www.w3.org/2000/svg"
 width="396.000000pt" height="396.000000pt" viewBox="0 0 396.000000 396.000000"
 preserveAspectRatio="xMidYMid meet">

<g transform="translate(0.000000,396.000000) scale(0.100000,-0.100000)"
fill="#000000" stroke="none">
<path d="M0 1980 l0 -1980 1980 0 1980 0 0 1980 0 1980 -1980 0 -1980 0 0
-1980z m2266 1315 c226 -40 461 -150 627 -296 l39 -34 -172 -217 -173 -218
-41 26 c-72 45 -219 113 -280 128 -145 38 -300 44 -397 15 -86 -26 -134 -109
-110 -189 17 -56 79 -99 226 -156 200 -78 506 -203 570 -232 210 -96 359 -252
418 -437 19 -60 22 -93 22 -225 0 -136 -3 -164 -23 -225 -46 -135 -99 -223
-197 -320 -185 -184 -428 -278 -755 -292 -256 -10 -566 59 -775 173 -141 77
-287 181 -280 201 6 18 377 463 386 463 5 0 43 -23 84 -51 97 -65 237 -131
340 -161 68 -19 103 -23 230 -23 140 0 153 2 199 25 66 33 91 69 89 126 -2 58
-32 105 -91 143 -26 17 -189 89 -362 161 -396 165 -460 200 -570 310 -129 130
-189 249 -212 425 -54 417 267 792 754 880 103 19 346 18 454 0z"/>
</g>
</svg>
